<svg xmlns="http://www.w3.org/2000/svg" viewBox="0 0 128 128">
  <path fill="#512BD4" d="M64 0C28.656 0 0 28.656 0 64s28.656 64 64 64 64-28.656 64-64S99.344 0 64 0z"/>
  <path fill="#fff" d="M30.7 93.3a3.7 3.7 0 110-7.4 3.7 3.7 0 010 7.4zm16.1-.2H40V55.4l-9.4 1.2v-6.2l15.7-2.8h.5v45.5zm30.5 0H51.1V87l21.1-26.8H51.9v-5.8h25.1v5.9L55.7 87.3h21.6v5.8zm23.4.4c-4.1 0-7.4-1.2-9.8-3.7-2.4-2.5-3.6-5.9-3.6-10.1V71c0-4.4 1.2-7.8 3.6-10.4 2.4-2.6 5.5-3.9 9.4-3.9 3.7 0 6.6 1 8.6 3 2 2 3 4.9 3 8.6v4h-18.6v.6c0 2.4.6 4.3 1.9 5.7 1.2 1.4 2.9 2.1 5 2.1 1.6 0 3-.3 4.2-.8 1.2-.6 2.2-1.4 3.2-2.5l2.9 3.8c-1 1.3-2.4 2.4-4.2 3.2-1.8.9-3.9 1.3-6.6 1.3zm-.5-32.5c-1.8 0-3.2.6-4.2 1.8-1 1.2-1.6 3-1.8 5.3h11.9v-.8c0-2.1-.5-3.7-1.4-4.8-.9-1-2.4-1.5-4.5-1.5z"/>
</svg>
