<svg xmlns="http://www.w3.org/2000/svg" viewBox="0 0 400 400">
  <rect width="400" height="400" fill="#3178C6" rx="8"/>
  <path fill="#fff" d="M87.7 200.7V217h52v148h36.9V217h52v-16.3c0-9 0-16.5-.4-16.7-.3-.3-31.7-.4-69.9-.4l-69.7.1v16z"/>
  <path fill="#fff" d="M321.4 184.1c10.7 2.7 18.8 7.6 26.3 15.4 3.9 4.1 9.6 11.6 10 13.4.1.6-18 12.8-29 19.7-.4.3-2-1.6-3.8-4.5-5.4-7.8-11-11.2-19.6-11.8-12.7-.8-20.8 5.8-20.7 17 0 3.3.4 5.2 1.8 7.9 2.8 5.8 8.2 9.3 23.5 16.4 29 12.5 41.4 20.7 49.1 32.5 8.6 13.2 10.5 34.3 4.7 50-6.4 17.1-22.2 28.7-44.4 32.6-6.9 1.2-23.1 1-30.5-.4-16-3-31.2-11.3-40.6-22.3-3.9-4.6-11.4-16.8-10.9-17.7.2-.4 1.7-1.3 3.3-2.1 1.6-.9 8.4-4.8 15.1-8.8l12.1-7.2 2.6 3.8c3.6 5.6 11.5 13.2 16.2 15.8 13.7 7.2 32.4 6.2 41.7-2.1 4-3.5 5.7-7.2 5.7-12.7 0-4.9-.6-7.1-3-10.7-3.1-4.5-9.5-8.3-27.5-16.4-20.6-9.2-29.5-14.9-37.5-23.9-4.7-5.3-9.1-13.9-10.9-21.1-1.5-6.1-1.9-21.1-.7-27.3 4.3-21.7 19.5-36.9 41.8-42.4 7.2-1.8 25.3-1.3 32.7.5z"/>
</svg>
